<?xml version="1.0" encoding="utf-8" standalone="no"?>
<!DOCTYPE svg PUBLIC "-//W3C//DTD SVG 1.1//EN"
  "http://www.w3.org/Graphics/SVG/1.1/DTD/svg11.dtd">
<svg xmlns:xlink="http://www.w3.org/1999/xlink" width="460.8pt" height="345.6pt" viewBox="0 0 460.8 345.6" xmlns="http://www.w3.org/2000/svg" version="1.1">
 <metadata>
  <rdf:RDF xmlns:dc="http://purl.org/dc/elements/1.1/" xmlns:cc="http://creativecommons.org/ns#" xmlns:rdf="http://www.w3.org/1999/02/22-rdf-syntax-ns#">
   <cc:Work>
    <dc:type rdf:resource="http://purl.org/dc/dcmitype/StillImage"/>
    <dc:date>2024-06-15T14:41:54.791917</dc:date>
    <dc:format>image/svg+xml</dc:format>
    <dc:creator>
     <cc:Agent>
      <dc:title>Matplotlib v3.8.4, https://matplotlib.org/</dc:title>
     </cc:Agent>
    </dc:creator>
   </cc:Work>
  </rdf:RDF>
 </metadata>
 <defs>
  <style type="text/css">*{stroke-linejoin: round; stroke-linecap: butt}</style>
 </defs>
 <g id="figure_1">
  <g id="patch_1">
   <path d="M 0 345.6 
L 460.8 345.6 
L 460.8 0 
L 0 0 
z
" style="fill: #ffffff"/>
  </g>
  <g id="axes_1">
   <g id="patch_2">
    <path d="M 57.6 307.584 
L 414.72 307.584 
L 414.72 41.472 
L 57.6 41.472 
z
" style="fill: #ffffff"/>
   </g>
   <g id="matplotlib.axis_1">
    <g id="xtick_1">
     <g id="line2d_1">
      <path d="M 112.758138 307.584 
L 112.758138 41.472 
" clip-path="url(#pb6181eda93)" style="fill: none; stroke: #dcdcdc; stroke-width: 0.8; stroke-linecap: round"/>
     </g>
     <g id="text_1">
      <!-- $\mathdefault{10^{-2}}$ -->
      <g style="fill: #262626" transform="translate(102.462138 322.570625) scale(0.088 -0.088)">
       <defs>
        <path id="DejaVuSerif-31" d="M 909 0 
L 909 331 
L 1722 331 
L 1722 4213 
L 781 3603 
L 781 4013 
L 1919 4750 
L 2350 4750 
L 2350 331 
L 3163 331 
L 3163 0 
L 909 0 
z
" transform="scale(0.015625)"/>
        <path id="DejaVuSerif-30" d="M 2034 219 
Q 2513 219 2750 744 
Q 2988 1269 2988 2328 
Q 2988 3391 2750 3916 
Q 2513 4441 2034 4441 
Q 1556 4441 1318 3916 
Q 1081 3391 1081 2328 
Q 1081 1269 1318 744 
Q 1556 219 2034 219 
z
M 2034 -91 
Q 1275 -91 848 546 
Q 422 1184 422 2328 
Q 422 3475 848 4112 
Q 1275 4750 2034 4750 
Q 2797 4750 3222 4112 
Q 3647 3475 3647 2328 
Q 3647 1184 3222 546 
Q 2797 -91 2034 -91 
z
" transform="scale(0.015625)"/>
        <path id="DejaVuSerif-2212" d="M 678 2259 
L 4684 2259 
L 4684 1753 
L 678 1753 
L 678 2259 
z
" transform="scale(0.015625)"/>
        <path id="DejaVuSerif-32" d="M 819 3553 
L 469 3553 
L 469 4384 
Q 803 4563 1142 4656 
Q 1481 4750 1806 4750 
Q 2534 4750 2956 4397 
Q 3378 4044 3378 3438 
Q 3378 2753 2422 1800 
Q 2347 1728 2309 1691 
L 1131 513 
L 3078 513 
L 3078 1088 
L 3444 1088 
L 3444 0 
L 434 0 
L 434 341 
L 1850 1753 
Q 2319 2222 2519 2614 
Q 2719 3006 2719 3438 
Q 2719 3909 2473 4175 
Q 2228 4441 1797 4441 
Q 1350 4441 1106 4219 
Q 863 3997 819 3553 
z
" transform="scale(0.015625)"/>
       </defs>
       <use xlink:href="#DejaVuSerif-31" transform="translate(0 0.7125)"/>
       <use xlink:href="#DejaVuSerif-30" transform="translate(63.623047 0.7125)"/>
       <use xlink:href="#DejaVuSerif-2212" transform="translate(128.154453 37.046875) scale(0.7)"/>
       <use xlink:href="#DejaVuSerif-32" transform="translate(186.806797 37.046875) scale(0.7)"/>
      </g>
     </g>
    </g>
    <g id="xtick_2">
     <g id="line2d_2">
      <path d="M 188.384844 307.584 
L 188.384844 41.472 
" clip-path="url(#pb6181eda93)" style="fill: none; stroke: #dcdcdc; stroke-width: 0.8; stroke-linecap: round"/>
     </g>
     <g id="text_2">
      <!-- $\mathdefault{10^{-1}}$ -->
      <g style="fill: #262626" transform="translate(178.088844 322.570625) scale(0.088 -0.088)">
       <use xlink:href="#DejaVuSerif-31" transform="translate(0 0.7125)"/>
       <use xlink:href="#DejaVuSerif-30" transform="translate(63.623047 0.7125)"/>
       <use xlink:href="#DejaVuSerif-2212" transform="translate(128.154453 37.046875) scale(0.7)"/>
       <use xlink:href="#DejaVuSerif-31" transform="translate(186.806797 37.046875) scale(0.7)"/>
      </g>
     </g>
    </g>
    <g id="xtick_3">
     <g id="line2d_3">
      <path d="M 264.01155 307.584 
L 264.01155 41.472 
" clip-path="url(#pb6181eda93)" style="fill: none; stroke: #dcdcdc; stroke-width: 0.8; stroke-linecap: round"/>
     </g>
     <g id="text_3">
      <!-- $\mathdefault{10^{0}}$ -->
      <g style="fill: #262626" transform="translate(256.26755 322.570625) scale(0.088 -0.088)">
       <use xlink:href="#DejaVuSerif-31" transform="translate(0 0.7125)"/>
       <use xlink:href="#DejaVuSerif-30" transform="translate(63.623047 0.7125)"/>
       <use xlink:href="#DejaVuSerif-30" transform="translate(128.154453 37.046875) scale(0.7)"/>
      </g>
     </g>
    </g>
    <g id="xtick_4">
     <g id="line2d_4">
      <path d="M 339.638257 307.584 
L 339.638257 41.472 
" clip-path="url(#pb6181eda93)" style="fill: none; stroke: #dcdcdc; stroke-width: 0.8; stroke-linecap: round"/>
     </g>
     <g id="text_4">
      <!-- $\mathdefault{10^{1}}$ -->
      <g style="fill: #262626" transform="translate(331.894257 322.570625) scale(0.088 -0.088)">
       <use xlink:href="#DejaVuSerif-31" transform="translate(0 0.7125)"/>
       <use xlink:href="#DejaVuSerif-30" transform="translate(63.623047 0.7125)"/>
       <use xlink:href="#DejaVuSerif-31" transform="translate(128.154453 37.046875) scale(0.7)"/>
      </g>
     </g>
    </g>
    <g id="xtick_5"/>
    <g id="xtick_6"/>
    <g id="xtick_7"/>
    <g id="xtick_8"/>
    <g id="xtick_9"/>
    <g id="xtick_10"/>
    <g id="xtick_11"/>
    <g id="xtick_12"/>
    <g id="xtick_13"/>
    <g id="xtick_14"/>
    <g id="xtick_15"/>
    <g id="xtick_16"/>
    <g id="xtick_17"/>
    <g id="xtick_18"/>
    <g id="xtick_19"/>
    <g id="xtick_20"/>
    <g id="xtick_21"/>
    <g id="xtick_22"/>
    <g id="xtick_23"/>
    <g id="xtick_24"/>
    <g id="xtick_25"/>
    <g id="xtick_26"/>
    <g id="xtick_27"/>
    <g id="xtick_28"/>
    <g id="xtick_29"/>
    <g id="xtick_30"/>
    <g id="xtick_31"/>
    <g id="xtick_32"/>
    <g id="xtick_33"/>
    <g id="xtick_34"/>
    <g id="xtick_35"/>
    <g id="xtick_36"/>
    <g id="xtick_37"/>
    <g id="xtick_38"/>
    <g id="xtick_39"/>
    <g id="xtick_40"/>
    <g id="xtick_41"/>
    <g id="xtick_42"/>
    <g id="xtick_43"/>
    <g id="xtick_44"/>
    <g id="text_5">
     <!-- Time (s) -->
     <g style="fill: #262626" transform="translate(216.29625 335.69525) scale(0.096 -0.096)">
      <defs>
       <path id="DejaVuSerif-54" d="M 1222 0 
L 1222 331 
L 1819 331 
L 1819 4294 
L 447 4294 
L 447 3566 
L 63 3566 
L 63 4666 
L 4206 4666 
L 4206 3566 
L 3822 3566 
L 3822 4294 
L 2450 4294 
L 2450 331 
L 3047 331 
L 3047 0 
L 1222 0 
z
" transform="scale(0.015625)"/>
       <path id="DejaVuSerif-69" d="M 622 4353 
Q 622 4497 726 4603 
Q 831 4709 978 4709 
Q 1122 4709 1226 4603 
Q 1331 4497 1331 4353 
Q 1331 4206 1228 4103 
Q 1125 4000 978 4000 
Q 831 4000 726 4103 
Q 622 4206 622 4353 
z
M 1356 331 
L 1900 331 
L 1900 0 
L 231 0 
L 231 331 
L 781 331 
L 781 2988 
L 231 2988 
L 231 3322 
L 1356 3322 
L 1356 331 
z
" transform="scale(0.015625)"/>
       <path id="DejaVuSerif-6d" d="M 3316 2675 
Q 3481 3041 3739 3227 
Q 3997 3413 4341 3413 
Q 4863 3413 5119 3089 
Q 5375 2766 5375 2113 
L 5375 331 
L 5894 331 
L 5894 0 
L 4300 0 
L 4300 331 
L 4800 331 
L 4800 2047 
Q 4800 2556 4650 2772 
Q 4500 2988 4153 2988 
Q 3769 2988 3567 2697 
Q 3366 2406 3366 1850 
L 3366 331 
L 3866 331 
L 3866 0 
L 2291 0 
L 2291 331 
L 2791 331 
L 2791 2069 
Q 2791 2566 2641 2777 
Q 2491 2988 2144 2988 
Q 1759 2988 1557 2697 
Q 1356 2406 1356 1850 
L 1356 331 
L 1856 331 
L 1856 0 
L 263 0 
L 263 331 
L 781 331 
L 781 2994 
L 231 2994 
L 231 3322 
L 1356 3322 
L 1356 2731 
Q 1516 3063 1762 3238 
Q 2009 3413 2322 3413 
Q 2709 3413 2968 3220 
Q 3228 3028 3316 2675 
z
" transform="scale(0.015625)"/>
       <path id="DejaVuSerif-65" d="M 3469 1600 
L 991 1600 
L 991 1575 
Q 991 903 1244 561 
Q 1497 219 1991 219 
Q 2369 219 2611 417 
Q 2853 616 2950 1006 
L 3413 1006 
Q 3275 459 2904 184 
Q 2534 -91 1931 -91 
Q 1203 -91 761 389 
Q 319 869 319 1663 
Q 319 2450 753 2931 
Q 1188 3413 1894 3413 
Q 2647 3413 3050 2948 
Q 3453 2484 3469 1600 
z
M 2791 1931 
Q 2772 2513 2545 2808 
Q 2319 3103 1894 3103 
Q 1497 3103 1269 2806 
Q 1041 2509 991 1931 
L 2791 1931 
z
" transform="scale(0.015625)"/>
       <path id="DejaVuSerif-20" transform="scale(0.015625)"/>
       <path id="DejaVuSerif-28" d="M 2041 -997 
Q 1281 -656 893 83 
Q 506 822 506 1931 
Q 506 3044 893 3783 
Q 1281 4522 2041 4863 
L 2041 4556 
Q 1559 4225 1350 3623 
Q 1141 3022 1141 1931 
Q 1141 844 1350 242 
Q 1559 -359 2041 -691 
L 2041 -997 
z
" transform="scale(0.015625)"/>
       <path id="DejaVuSerif-73" d="M 359 184 
L 359 959 
L 691 959 
Q 703 588 923 403 
Q 1144 219 1575 219 
Q 1963 219 2166 364 
Q 2369 509 2369 788 
Q 2369 1006 2220 1140 
Q 2072 1275 1594 1428 
L 1178 1569 
Q 750 1706 558 1912 
Q 366 2119 366 2438 
Q 366 2894 700 3153 
Q 1034 3413 1625 3413 
Q 1888 3413 2178 3344 
Q 2469 3275 2778 3144 
L 2778 2419 
L 2447 2419 
Q 2434 2741 2221 2922 
Q 2009 3103 1644 3103 
Q 1281 3103 1095 2975 
Q 909 2847 909 2591 
Q 909 2381 1050 2254 
Q 1191 2128 1613 1997 
L 2069 1856 
Q 2541 1709 2748 1489 
Q 2956 1269 2956 922 
Q 2956 450 2595 179 
Q 2234 -91 1600 -91 
Q 1278 -91 972 -22 
Q 666 47 359 184 
z
" transform="scale(0.015625)"/>
       <path id="DejaVuSerif-29" d="M 453 -997 
L 453 -691 
Q 934 -359 1145 242 
Q 1356 844 1356 1931 
Q 1356 3022 1145 3623 
Q 934 4225 453 4556 
L 453 4863 
Q 1216 4522 1603 3783 
Q 1991 3044 1991 1931 
Q 1991 822 1603 83 
Q 1216 -656 453 -997 
z
" transform="scale(0.015625)"/>
      </defs>
      <use xlink:href="#DejaVuSerif-54"/>
      <use xlink:href="#DejaVuSerif-69" x="66.699219"/>
      <use xlink:href="#DejaVuSerif-6d" x="98.681641"/>
      <use xlink:href="#DejaVuSerif-65" x="193.505859"/>
      <use xlink:href="#DejaVuSerif-20" x="252.685547"/>
      <use xlink:href="#DejaVuSerif-28" x="284.472656"/>
      <use xlink:href="#DejaVuSerif-73" x="323.486328"/>
      <use xlink:href="#DejaVuSerif-29" x="374.804688"/>
     </g>
    </g>
   </g>
   <g id="matplotlib.axis_2">
    <g id="ytick_1">
     <g id="line2d_5">
      <path d="M 57.6 307.584 
L 414.72 307.584 
" clip-path="url(#pb6181eda93)" style="fill: none; stroke: #dcdcdc; stroke-width: 0.8; stroke-linecap: round"/>
     </g>
     <g id="text_6">
      <!-- 0.0 -->
      <g style="fill: #262626" transform="translate(35.30525 310.927312) scale(0.088 -0.088)">
       <defs>
        <path id="DejaVuSerif-2e" d="M 603 325 
Q 603 500 722 622 
Q 841 744 1019 744 
Q 1191 744 1312 622 
Q 1434 500 1434 325 
Q 1434 153 1312 31 
Q 1191 -91 1019 -91 
Q 841 -91 722 29 
Q 603 150 603 325 
z
" transform="scale(0.015625)"/>
       </defs>
       <use xlink:href="#DejaVuSerif-30"/>
       <use xlink:href="#DejaVuSerif-2e" x="63.623047"/>
       <use xlink:href="#DejaVuSerif-30" x="95.410156"/>
      </g>
     </g>
    </g>
    <g id="ytick_2">
     <g id="line2d_6">
      <path d="M 57.6 275.904 
L 414.72 275.904 
" clip-path="url(#pb6181eda93)" style="fill: none; stroke: #dcdcdc; stroke-width: 0.8; stroke-linecap: round"/>
     </g>
     <g id="text_7">
      <!-- 2.5 -->
      <g style="fill: #262626" transform="translate(35.30525 279.247312) scale(0.088 -0.088)">
       <defs>
        <path id="DejaVuSerif-35" d="M 3219 4666 
L 3219 4153 
L 1081 4153 
L 1081 2816 
Q 1244 2928 1461 2984 
Q 1678 3041 1947 3041 
Q 2703 3041 3140 2622 
Q 3578 2203 3578 1478 
Q 3578 738 3136 323 
Q 2694 -91 1894 -91 
Q 1572 -91 1234 -12 
Q 897 66 544 225 
L 544 1131 
L 897 1131 
Q 925 688 1179 453 
Q 1434 219 1894 219 
Q 2388 219 2653 544 
Q 2919 869 2919 1478 
Q 2919 2084 2655 2407 
Q 2391 2731 1894 2731 
Q 1613 2731 1398 2631 
Q 1184 2531 1019 2322 
L 750 2322 
L 750 4666 
L 3219 4666 
z
" transform="scale(0.015625)"/>
       </defs>
       <use xlink:href="#DejaVuSerif-32"/>
       <use xlink:href="#DejaVuSerif-2e" x="63.623047"/>
       <use xlink:href="#DejaVuSerif-35" x="95.410156"/>
      </g>
     </g>
    </g>
    <g id="ytick_3">
     <g id="line2d_7">
      <path d="M 57.6 244.224 
L 414.72 244.224 
" clip-path="url(#pb6181eda93)" style="fill: none; stroke: #dcdcdc; stroke-width: 0.8; stroke-linecap: round"/>
     </g>
     <g id="text_8">
      <!-- 5.0 -->
      <g style="fill: #262626" transform="translate(35.30525 247.567312) scale(0.088 -0.088)">
       <use xlink:href="#DejaVuSerif-35"/>
       <use xlink:href="#DejaVuSerif-2e" x="63.623047"/>
       <use xlink:href="#DejaVuSerif-30" x="95.410156"/>
      </g>
     </g>
    </g>
    <g id="ytick_4">
     <g id="line2d_8">
      <path d="M 57.6 212.544 
L 414.72 212.544 
" clip-path="url(#pb6181eda93)" style="fill: none; stroke: #dcdcdc; stroke-width: 0.8; stroke-linecap: round"/>
     </g>
     <g id="text_9">
      <!-- 7.5 -->
      <g style="fill: #262626" transform="translate(35.30525 215.887312) scale(0.088 -0.088)">
       <defs>
        <path id="DejaVuSerif-37" d="M 3609 4347 
L 1784 0 
L 1319 0 
L 3059 4153 
L 903 4153 
L 903 3578 
L 538 3578 
L 538 4666 
L 3609 4666 
L 3609 4347 
z
" transform="scale(0.015625)"/>
       </defs>
       <use xlink:href="#DejaVuSerif-37"/>
       <use xlink:href="#DejaVuSerif-2e" x="63.623047"/>
       <use xlink:href="#DejaVuSerif-35" x="95.410156"/>
      </g>
     </g>
    </g>
    <g id="ytick_5">
     <g id="line2d_9">
      <path d="M 57.6 180.864 
L 414.72 180.864 
" clip-path="url(#pb6181eda93)" style="fill: none; stroke: #dcdcdc; stroke-width: 0.8; stroke-linecap: round"/>
     </g>
     <g id="text_10">
      <!-- 10.0 -->
      <g style="fill: #262626" transform="translate(29.70625 184.207313) scale(0.088 -0.088)">
       <use xlink:href="#DejaVuSerif-31"/>
       <use xlink:href="#DejaVuSerif-30" x="63.623047"/>
       <use xlink:href="#DejaVuSerif-2e" x="127.246094"/>
       <use xlink:href="#DejaVuSerif-30" x="159.033203"/>
      </g>
     </g>
    </g>
    <g id="ytick_6">
     <g id="line2d_10">
      <path d="M 57.6 149.184 
L 414.72 149.184 
" clip-path="url(#pb6181eda93)" style="fill: none; stroke: #dcdcdc; stroke-width: 0.8; stroke-linecap: round"/>
     </g>
     <g id="text_11">
      <!-- 12.5 -->
      <g style="fill: #262626" transform="translate(29.70625 152.527312) scale(0.088 -0.088)">
       <use xlink:href="#DejaVuSerif-31"/>
       <use xlink:href="#DejaVuSerif-32" x="63.623047"/>
       <use xlink:href="#DejaVuSerif-2e" x="127.246094"/>
       <use xlink:href="#DejaVuSerif-35" x="159.033203"/>
      </g>
     </g>
    </g>
    <g id="ytick_7">
     <g id="line2d_11">
      <path d="M 57.6 117.504 
L 414.72 117.504 
" clip-path="url(#pb6181eda93)" style="fill: none; stroke: #dcdcdc; stroke-width: 0.8; stroke-linecap: round"/>
     </g>
     <g id="text_12">
      <!-- 15.0 -->
      <g style="fill: #262626" transform="translate(29.70625 120.847313) scale(0.088 -0.088)">
       <use xlink:href="#DejaVuSerif-31"/>
       <use xlink:href="#DejaVuSerif-35" x="63.623047"/>
       <use xlink:href="#DejaVuSerif-2e" x="127.246094"/>
       <use xlink:href="#DejaVuSerif-30" x="159.033203"/>
      </g>
     </g>
    </g>
    <g id="ytick_8">
     <g id="line2d_12">
      <path d="M 57.6 85.824 
L 414.72 85.824 
" clip-path="url(#pb6181eda93)" style="fill: none; stroke: #dcdcdc; stroke-width: 0.8; stroke-linecap: round"/>
     </g>
     <g id="text_13">
      <!-- 17.5 -->
      <g style="fill: #262626" transform="translate(29.70625 89.167313) scale(0.088 -0.088)">
       <use xlink:href="#DejaVuSerif-31"/>
       <use xlink:href="#DejaVuSerif-37" x="63.623047"/>
       <use xlink:href="#DejaVuSerif-2e" x="127.246094"/>
       <use xlink:href="#DejaVuSerif-35" x="159.033203"/>
      </g>
     </g>
    </g>
    <g id="ytick_9">
     <g id="line2d_13">
      <path d="M 57.6 54.144 
L 414.72 54.144 
" clip-path="url(#pb6181eda93)" style="fill: none; stroke: #dcdcdc; stroke-width: 0.8; stroke-linecap: round"/>
     </g>
     <g id="text_14">
      <!-- 20.0 -->
      <g style="fill: #262626" transform="translate(29.70625 57.487313) scale(0.088 -0.088)">
       <use xlink:href="#DejaVuSerif-32"/>
       <use xlink:href="#DejaVuSerif-30" x="63.623047"/>
       <use xlink:href="#DejaVuSerif-2e" x="127.246094"/>
       <use xlink:href="#DejaVuSerif-30" x="159.033203"/>
      </g>
     </g>
    </g>
    <g id="text_15">
     <!-- # bugs found -->
     <g style="fill: #262626" transform="translate(23.57325 207.2235) rotate(-90) scale(0.096 -0.096)">
      <defs>
       <path id="DejaVuSerif-23" d="M 3256 2816 
L 2375 2816 
L 2113 1772 
L 3003 1772 
L 3256 2816 
z
M 2816 4594 
L 2497 3297 
L 3378 3297 
L 3700 4594 
L 4238 4594 
L 3909 3297 
L 4872 3297 
L 4872 2816 
L 3788 2816 
L 3531 1772 
L 4513 1772 
L 4513 1294 
L 3413 1294 
L 3091 0 
L 2553 0 
L 2881 1294 
L 1997 1294 
L 1672 0 
L 1141 0 
L 1459 1294 
L 494 1294 
L 494 1772 
L 1581 1772 
L 1838 2816 
L 850 2816 
L 850 3297 
L 1959 3297 
L 2284 4594 
L 2816 4594 
z
" transform="scale(0.015625)"/>
       <path id="DejaVuSerif-62" d="M 738 331 
L 738 4531 
L 184 4531 
L 184 4863 
L 1313 4863 
L 1313 2803 
Q 1481 3116 1742 3264 
Q 2003 3413 2388 3413 
Q 3000 3413 3387 2928 
Q 3775 2444 3775 1663 
Q 3775 881 3387 395 
Q 3000 -91 2388 -91 
Q 2003 -91 1742 57 
Q 1481 206 1313 519 
L 1313 0 
L 184 0 
L 184 331 
L 738 331 
z
M 1313 1497 
Q 1313 897 1542 583 
Q 1772 269 2209 269 
Q 2650 269 2876 622 
Q 3103 975 3103 1663 
Q 3103 2353 2876 2703 
Q 2650 3053 2209 3053 
Q 1772 3053 1542 2737 
Q 1313 2422 1313 1825 
L 1313 1497 
z
" transform="scale(0.015625)"/>
       <path id="DejaVuSerif-75" d="M 2266 3322 
L 3341 3322 
L 3341 331 
L 3884 331 
L 3884 0 
L 2766 0 
L 2766 588 
Q 2606 256 2353 82 
Q 2100 -91 1766 -91 
Q 1213 -91 952 223 
Q 691 538 691 1209 
L 691 2988 
L 172 2988 
L 172 3322 
L 1269 3322 
L 1269 1388 
Q 1269 781 1417 556 
Q 1566 331 1947 331 
Q 2347 331 2556 625 
Q 2766 919 2766 1478 
L 2766 2988 
L 2266 2988 
L 2266 3322 
z
" transform="scale(0.015625)"/>
       <path id="DejaVuSerif-67" d="M 3359 2988 
L 3359 72 
Q 3359 -644 2965 -1033 
Q 2572 -1422 1844 -1422 
Q 1516 -1422 1216 -1362 
Q 916 -1303 641 -1184 
L 641 -488 
L 941 -488 
Q 997 -813 1206 -963 
Q 1416 -1113 1806 -1113 
Q 2313 -1113 2548 -827 
Q 2784 -541 2784 72 
L 2784 519 
Q 2616 206 2355 57 
Q 2094 -91 1709 -91 
Q 1097 -91 708 395 
Q 319 881 319 1663 
Q 319 2444 706 2928 
Q 1094 3413 1709 3413 
Q 2094 3413 2355 3264 
Q 2616 3116 2784 2803 
L 2784 3322 
L 3909 3322 
L 3909 2988 
L 3359 2988 
z
M 2784 1825 
Q 2784 2422 2554 2737 
Q 2325 3053 1888 3053 
Q 1444 3053 1217 2703 
Q 991 2353 991 1663 
Q 991 975 1217 622 
Q 1444 269 1888 269 
Q 2325 269 2554 583 
Q 2784 897 2784 1497 
L 2784 1825 
z
" transform="scale(0.015625)"/>
       <path id="DejaVuSerif-66" d="M 2753 4078 
L 2450 4078 
Q 2447 4313 2317 4434 
Q 2188 4556 1941 4556 
Q 1619 4556 1487 4379 
Q 1356 4203 1356 3750 
L 1356 3322 
L 2284 3322 
L 2284 2988 
L 1356 2988 
L 1356 331 
L 2094 331 
L 2094 0 
L 231 0 
L 231 331 
L 781 331 
L 781 2988 
L 231 2988 
L 231 3322 
L 781 3322 
L 781 3738 
Q 781 4294 1070 4578 
Q 1359 4863 1919 4863 
Q 2128 4863 2337 4825 
Q 2547 4788 2753 4709 
L 2753 4078 
z
" transform="scale(0.015625)"/>
       <path id="DejaVuSerif-6f" d="M 1925 219 
Q 2388 219 2623 584 
Q 2859 950 2859 1663 
Q 2859 2375 2623 2739 
Q 2388 3103 1925 3103 
Q 1463 3103 1227 2739 
Q 991 2375 991 1663 
Q 991 950 1228 584 
Q 1466 219 1925 219 
z
M 1925 -91 
Q 1200 -91 759 389 
Q 319 869 319 1663 
Q 319 2456 758 2934 
Q 1197 3413 1925 3413 
Q 2653 3413 3092 2934 
Q 3531 2456 3531 1663 
Q 3531 869 3092 389 
Q 2653 -91 1925 -91 
z
" transform="scale(0.015625)"/>
       <path id="DejaVuSerif-6e" d="M 263 0 
L 263 331 
L 781 331 
L 781 2988 
L 231 2988 
L 231 3322 
L 1356 3322 
L 1356 2731 
Q 1516 3069 1770 3241 
Q 2025 3413 2363 3413 
Q 2913 3413 3172 3097 
Q 3431 2781 3431 2113 
L 3431 331 
L 3944 331 
L 3944 0 
L 2356 0 
L 2356 331 
L 2853 331 
L 2853 1931 
Q 2853 2541 2703 2767 
Q 2553 2994 2175 2994 
Q 1775 2994 1565 2701 
Q 1356 2409 1356 1850 
L 1356 331 
L 1856 331 
L 1856 0 
L 263 0 
z
" transform="scale(0.015625)"/>
       <path id="DejaVuSerif-64" d="M 3359 331 
L 3909 331 
L 3909 0 
L 2784 0 
L 2784 519 
Q 2616 206 2355 57 
Q 2094 -91 1709 -91 
Q 1097 -91 708 395 
Q 319 881 319 1663 
Q 319 2444 706 2928 
Q 1094 3413 1709 3413 
Q 2094 3413 2355 3264 
Q 2616 3116 2784 2803 
L 2784 4531 
L 2241 4531 
L 2241 4863 
L 3359 4863 
L 3359 331 
z
M 2784 1497 
L 2784 1825 
Q 2784 2422 2554 2737 
Q 2325 3053 1888 3053 
Q 1444 3053 1217 2703 
Q 991 2353 991 1663 
Q 991 975 1217 622 
Q 1444 269 1888 269 
Q 2325 269 2554 583 
Q 2784 897 2784 1497 
z
" transform="scale(0.015625)"/>
      </defs>
      <use xlink:href="#DejaVuSerif-23"/>
      <use xlink:href="#DejaVuSerif-20" x="83.789062"/>
      <use xlink:href="#DejaVuSerif-62" x="115.576172"/>
      <use xlink:href="#DejaVuSerif-75" x="179.589844"/>
      <use xlink:href="#DejaVuSerif-67" x="243.994141"/>
      <use xlink:href="#DejaVuSerif-73" x="308.007812"/>
      <use xlink:href="#DejaVuSerif-20" x="359.326172"/>
      <use xlink:href="#DejaVuSerif-66" x="391.113281"/>
      <use xlink:href="#DejaVuSerif-6f" x="428.125"/>
      <use xlink:href="#DejaVuSerif-75" x="488.330078"/>
      <use xlink:href="#DejaVuSerif-6e" x="552.734375"/>
      <use xlink:href="#DejaVuSerif-64" x="617.138672"/>
     </g>
    </g>
   </g>
   <g id="PolyCollection_1"/>
   <g id="PolyCollection_2"/>
   <g id="PolyCollection_3"/>
   <g id="PolyCollection_4"/>
   <g id="line2d_14">
    <path d="M -1 294.934418 
L 132.559752 294.912 
L 167.011165 282.24 
L 175.892429 269.568 
L 180.384774 256.896 
L 183.841072 244.224 
L 187.437551 231.552 
L 190.867838 218.88 
L 199.994991 206.208 
L 200.408458 193.536 
L 206.509524 180.864 
L 210.930946 168.192 
L 211.241113 155.52 
L 214.206862 142.848 
L 230.277046 130.176 
L 247.120846 117.504 
L 248.780037 104.832 
L 339.588973 92.16 
L 352.005486 79.488 
L 373.09103 66.816 
L 377.689301 54.144 
L 398.487273 54.144 
" clip-path="url(#pb6181eda93)" style="fill: none; stroke: #1f77b4; stroke-width: 4; stroke-linecap: round"/>
   </g>
   <g id="line2d_15">
    <path d="M -1 294.93749 
L 150.895213 294.912 
L 151.314189 282.24 
L 156.01308 269.568 
L 157.453354 256.896 
L 159.105769 244.224 
L 163.903809 231.552 
L 167.748304 218.88 
L 174.547897 206.208 
L 175.195159 193.536 
L 177.795022 180.864 
L 182.08842 168.192 
L 185.268506 155.52 
L 195.742982 142.848 
L 222.329543 130.176 
L 238.09498 117.504 
L 246.384513 104.832 
L 280.449031 92.16 
L 288.80527 79.488 
L 313.085798 66.816 
L 322.703932 54.144 
L 398.487273 54.144 
" clip-path="url(#pb6181eda93)" style="fill: none; stroke-dasharray: 16,6; stroke-dashoffset: 0; stroke: #2ca02c; stroke-width: 4"/>
   </g>
   <g id="line2d_16">
    <path d="M -1 294.924571 
L 73.832727 294.912 
L 81.133766 282.24 
L 82.64682 269.568 
L 107.40873 256.896 
L 109.721874 244.224 
L 112.285074 231.552 
L 112.5836 218.88 
L 113.639568 206.208 
L 115.789849 193.536 
L 119.584057 180.864 
L 121.317138 168.192 
L 123.272409 155.52 
L 131.869569 142.848 
L 133.136982 130.176 
L 133.32716 117.504 
L 148.585161 104.832 
L 254.614567 92.16 
L 278.150378 79.488 
L 286.99355 66.816 
L 289.189816 54.144 
L 398.487273 54.144 
" clip-path="url(#pb6181eda93)" style="fill: none; stroke-dasharray: 4,4; stroke-dashoffset: 0; stroke: #ff7f0e; stroke-width: 4"/>
   </g>
   <g id="line2d_17">
    <path d="M -1 294.928396 
L 96.636217 294.912 
L 120.996679 282.24 
L 128.454732 269.568 
L 137.64941 256.896 
L 142.594516 244.224 
L 144.333915 231.552 
L 147.558589 218.88 
L 148.576333 206.208 
L 154.124001 193.536 
L 156.275166 180.864 
L 156.732072 168.192 
L 161.804015 155.52 
L 183.921312 142.848 
L 194.947437 130.176 
L 211.267142 117.504 
L 223.953101 104.832 
L 246.83125 92.16 
L 249.019337 79.488 
L 269.100415 66.816 
L 284.807045 54.144 
L 398.487273 54.144 
" clip-path="url(#pb6181eda93)" style="fill: none; stroke-dasharray: 12,5,6,5; stroke-dashoffset: 0; stroke: #d62728; stroke-width: 4"/>
   </g>
   <g id="line2d_18"/>
   <g id="line2d_19"/>
   <g id="line2d_20"/>
   <g id="line2d_21"/>
   <g id="patch_3">
    <path d="M 57.6 307.584 
L 57.6 41.472 
" style="fill: none; stroke: #ffffff; stroke-linejoin: miter; stroke-linecap: square"/>
   </g>
   <g id="patch_4">
    <path d="M 414.72 307.584 
L 414.72 41.472 
" style="fill: none; stroke: #ffffff; stroke-linejoin: miter; stroke-linecap: square"/>
   </g>
   <g id="patch_5">
    <path d="M 57.6 307.584 
L 414.72 307.584 
" style="fill: none; stroke: #ffffff; stroke-linejoin: miter; stroke-linecap: square"/>
   </g>
   <g id="patch_6">
    <path d="M 57.6 41.472 
L 414.72 41.472 
" style="fill: none; stroke: #ffffff; stroke-linejoin: miter; stroke-linecap: square"/>
   </g>
   <g id="legend_1">
    <g id="patch_7">
     <path d="M 194.99225 303.184 
L 408.56 303.184 
Q 410.32 303.184 410.32 301.424 
L 410.32 236.55925 
Q 410.32 234.79925 408.56 234.79925 
L 194.99225 234.79925 
Q 193.23225 234.79925 193.23225 236.55925 
L 193.23225 301.424 
Q 193.23225 303.184 194.99225 303.184 
z
" style="fill: #ffffff; opacity: 0.8; stroke: #cccccc; stroke-width: 0.8; stroke-linejoin: miter"/>
    </g>
    <g id="text_16">
     <!-- Strategy -->
     <g style="fill: #262626" transform="translate(280.848125 245.61375) scale(0.096 -0.096)">
      <defs>
       <path id="DejaVuSerif-53" d="M 594 225 
L 594 1288 
L 953 1284 
Q 969 753 1261 498 
Q 1553 244 2150 244 
Q 2706 244 2998 464 
Q 3291 684 3291 1106 
Q 3291 1444 3114 1625 
Q 2938 1806 2369 1978 
L 1753 2163 
Q 1084 2366 811 2669 
Q 538 2972 538 3500 
Q 538 4094 959 4422 
Q 1381 4750 2144 4750 
Q 2469 4750 2856 4679 
Q 3244 4609 3681 4475 
L 3681 3481 
L 3328 3481 
Q 3275 3975 2998 4195 
Q 2722 4416 2156 4416 
Q 1663 4416 1405 4214 
Q 1147 4013 1147 3628 
Q 1147 3294 1340 3103 
Q 1534 2913 2163 2725 
L 2741 2553 
Q 3375 2363 3645 2067 
Q 3916 1772 3916 1275 
Q 3916 597 3481 253 
Q 3047 -91 2188 -91 
Q 1803 -91 1404 -12 
Q 1006 66 594 225 
z
" transform="scale(0.015625)"/>
       <path id="DejaVuSerif-74" d="M 691 2988 
L 184 2988 
L 184 3322 
L 691 3322 
L 691 4353 
L 1269 4353 
L 1269 3322 
L 2350 3322 
L 2350 2988 
L 1269 2988 
L 1269 878 
Q 1269 456 1350 337 
Q 1431 219 1650 219 
Q 1875 219 1978 351 
Q 2081 484 2088 781 
L 2522 781 
Q 2497 328 2275 118 
Q 2053 -91 1600 -91 
Q 1103 -91 897 129 
Q 691 350 691 878 
L 691 2988 
z
" transform="scale(0.015625)"/>
       <path id="DejaVuSerif-72" d="M 3059 3328 
L 3059 2497 
L 2728 2497 
Q 2713 2744 2591 2866 
Q 2469 2988 2234 2988 
Q 1809 2988 1582 2694 
Q 1356 2400 1356 1850 
L 1356 331 
L 2022 331 
L 2022 0 
L 263 0 
L 263 331 
L 781 331 
L 781 2994 
L 231 2994 
L 231 3322 
L 1356 3322 
L 1356 2731 
Q 1525 3078 1790 3245 
Q 2056 3413 2438 3413 
Q 2578 3413 2733 3391 
Q 2888 3369 3059 3328 
z
" transform="scale(0.015625)"/>
       <path id="DejaVuSerif-61" d="M 2547 1044 
L 2547 1747 
L 1806 1747 
Q 1378 1747 1168 1562 
Q 959 1378 959 997 
Q 959 650 1171 447 
Q 1384 244 1747 244 
Q 2106 244 2326 466 
Q 2547 688 2547 1044 
z
M 3122 2075 
L 3122 331 
L 3634 331 
L 3634 0 
L 2547 0 
L 2547 359 
Q 2356 128 2106 18 
Q 1856 -91 1522 -91 
Q 969 -91 644 203 
Q 319 497 319 997 
Q 319 1513 691 1797 
Q 1063 2081 1741 2081 
L 2547 2081 
L 2547 2309 
Q 2547 2688 2317 2895 
Q 2088 3103 1672 3103 
Q 1328 3103 1125 2947 
Q 922 2791 872 2484 
L 575 2484 
L 575 3156 
Q 875 3284 1158 3348 
Q 1441 3413 1709 3413 
Q 2400 3413 2761 3070 
Q 3122 2728 3122 2075 
z
" transform="scale(0.015625)"/>
       <path id="DejaVuSerif-79" d="M 1381 -609 
L 1600 -56 
L 359 2988 
L -19 2988 
L -19 3322 
L 1509 3322 
L 1509 2988 
L 978 2988 
L 1913 703 
L 2847 2988 
L 2350 2988 
L 2350 3322 
L 3597 3322 
L 3597 2988 
L 3225 2988 
L 1703 -750 
Q 1547 -1138 1356 -1280 
Q 1166 -1422 819 -1422 
Q 672 -1422 517 -1397 
Q 363 -1372 206 -1325 
L 206 -691 
L 500 -691 
Q 519 -903 608 -995 
Q 697 -1088 884 -1088 
Q 1056 -1088 1161 -992 
Q 1266 -897 1381 -609 
z
" transform="scale(0.015625)"/>
      </defs>
      <use xlink:href="#DejaVuSerif-53"/>
      <use xlink:href="#DejaVuSerif-74" x="68.505859"/>
      <use xlink:href="#DejaVuSerif-72" x="108.691406"/>
      <use xlink:href="#DejaVuSerif-61" x="156.494141"/>
      <use xlink:href="#DejaVuSerif-74" x="216.113281"/>
      <use xlink:href="#DejaVuSerif-65" x="256.298828"/>
      <use xlink:href="#DejaVuSerif-67" x="315.478516"/>
      <use xlink:href="#DejaVuSerif-79" x="379.492188"/>
     </g>
    </g>
    <g id="line2d_22">
     <path d="M 196.75225 255.753375 
L 205.55225 255.753375 
L 214.35225 255.753375 
" style="fill: none; stroke: #1f77b4; stroke-width: 1.2; stroke-linecap: round"/>
    </g>
    <g id="text_17">
     <!-- QuickChick type-based generator -->
     <g style="fill: #262626" transform="translate(221.39225 258.833375) scale(0.088 -0.088)">
      <defs>
       <path id="DejaVuSerif-51" d="M 2700 -91 
Q 1628 -91 993 567 
Q 359 1225 359 2328 
Q 359 2894 529 3339 
Q 700 3784 1050 4134 
Q 1356 4441 1750 4595 
Q 2144 4750 2625 4750 
Q 3641 4750 4266 4084 
Q 4891 3419 4891 2328 
Q 4891 1403 4422 773 
Q 3953 144 3128 -38 
Q 3297 -247 3539 -347 
Q 3781 -447 4122 -447 
L 4219 -447 
L 4219 -1025 
Q 3691 -1000 3314 -767 
Q 2938 -534 2700 -91 
z
M 2625 244 
Q 3391 244 3781 770 
Q 4172 1297 4172 2328 
Q 4172 3363 3781 3889 
Q 3391 4416 2625 4416 
Q 1856 4416 1465 3889 
Q 1075 3363 1075 2328 
Q 1075 1297 1465 770 
Q 1856 244 2625 244 
z
" transform="scale(0.015625)"/>
       <path id="DejaVuSerif-63" d="M 3291 997 
Q 3169 466 2822 187 
Q 2475 -91 1925 -91 
Q 1200 -91 759 389 
Q 319 869 319 1663 
Q 319 2459 759 2936 
Q 1200 3413 1925 3413 
Q 2241 3413 2553 3339 
Q 2866 3266 3181 3116 
L 3181 2266 
L 2847 2266 
Q 2781 2703 2561 2903 
Q 2341 3103 1931 3103 
Q 1466 3103 1228 2742 
Q 991 2381 991 1663 
Q 991 944 1227 581 
Q 1463 219 1931 219 
Q 2303 219 2525 412 
Q 2747 606 2828 997 
L 3291 997 
z
" transform="scale(0.015625)"/>
       <path id="DejaVuSerif-6b" d="M 1831 0 
L 219 0 
L 219 331 
L 738 331 
L 738 4531 
L 184 4531 
L 184 4863 
L 1313 4863 
L 1313 1697 
L 2713 2988 
L 2234 2988 
L 2234 3322 
L 3738 3322 
L 3738 2988 
L 3169 2988 
L 2181 2075 
L 3444 331 
L 3922 331 
L 3922 0 
L 2284 0 
L 2284 331 
L 2759 331 
L 1766 1697 
L 1313 1275 
L 1313 331 
L 1831 331 
L 1831 0 
z
" transform="scale(0.015625)"/>
       <path id="DejaVuSerif-43" d="M 4513 1234 
Q 4306 581 3820 245 
Q 3334 -91 2591 -91 
Q 2134 -91 1743 65 
Q 1353 222 1050 525 
Q 700 875 529 1320 
Q 359 1766 359 2328 
Q 359 3416 987 4083 
Q 1616 4750 2644 4750 
Q 3025 4750 3456 4650 
Q 3888 4550 4384 4347 
L 4384 3272 
L 4031 3272 
Q 3916 3859 3567 4137 
Q 3219 4416 2591 4416 
Q 1844 4416 1459 3886 
Q 1075 3356 1075 2328 
Q 1075 1303 1459 773 
Q 1844 244 2591 244 
Q 3113 244 3450 492 
Q 3788 741 3938 1234 
L 4513 1234 
z
" transform="scale(0.015625)"/>
       <path id="DejaVuSerif-68" d="M 263 0 
L 263 331 
L 781 331 
L 781 4531 
L 231 4531 
L 231 4863 
L 1356 4863 
L 1356 2731 
Q 1516 3069 1770 3241 
Q 2025 3413 2363 3413 
Q 2913 3413 3172 3097 
Q 3431 2781 3431 2113 
L 3431 331 
L 3944 331 
L 3944 0 
L 2356 0 
L 2356 331 
L 2853 331 
L 2853 1931 
Q 2853 2541 2704 2764 
Q 2556 2988 2175 2988 
Q 1775 2988 1565 2697 
Q 1356 2406 1356 1850 
L 1356 331 
L 1856 331 
L 1856 0 
L 263 0 
z
" transform="scale(0.015625)"/>
       <path id="DejaVuSerif-70" d="M 1313 1825 
L 1313 1497 
Q 1313 897 1542 583 
Q 1772 269 2209 269 
Q 2650 269 2876 622 
Q 3103 975 3103 1663 
Q 3103 2353 2876 2703 
Q 2650 3053 2209 3053 
Q 1772 3053 1542 2737 
Q 1313 2422 1313 1825 
z
M 738 2988 
L 184 2988 
L 184 3322 
L 1313 3322 
L 1313 2803 
Q 1481 3116 1742 3264 
Q 2003 3413 2388 3413 
Q 3000 3413 3387 2928 
Q 3775 2444 3775 1663 
Q 3775 881 3387 395 
Q 3000 -91 2388 -91 
Q 2003 -91 1742 57 
Q 1481 206 1313 519 
L 1313 -997 
L 1856 -997 
L 1856 -1331 
L 184 -1331 
L 184 -997 
L 738 -997 
L 738 2988 
z
" transform="scale(0.015625)"/>
       <path id="DejaVuSerif-2d" d="M 281 1959 
L 1881 1959 
L 1881 1472 
L 281 1472 
L 281 1959 
z
" transform="scale(0.015625)"/>
      </defs>
      <use xlink:href="#DejaVuSerif-51"/>
      <use xlink:href="#DejaVuSerif-75" x="81.982422"/>
      <use xlink:href="#DejaVuSerif-69" x="146.386719"/>
      <use xlink:href="#DejaVuSerif-63" x="178.369141"/>
      <use xlink:href="#DejaVuSerif-6b" x="234.375"/>
      <use xlink:href="#DejaVuSerif-43" x="294.970703"/>
      <use xlink:href="#DejaVuSerif-68" x="371.484375"/>
      <use xlink:href="#DejaVuSerif-69" x="435.888672"/>
      <use xlink:href="#DejaVuSerif-63" x="467.871094"/>
      <use xlink:href="#DejaVuSerif-6b" x="523.876953"/>
      <use xlink:href="#DejaVuSerif-20" x="584.472656"/>
      <use xlink:href="#DejaVuSerif-74" x="616.259766"/>
      <use xlink:href="#DejaVuSerif-79" x="656.445312"/>
      <use xlink:href="#DejaVuSerif-70" x="712.939453"/>
      <use xlink:href="#DejaVuSerif-65" x="776.953125"/>
      <use xlink:href="#DejaVuSerif-2d" x="836.132812"/>
      <use xlink:href="#DejaVuSerif-62" x="869.921875"/>
      <use xlink:href="#DejaVuSerif-61" x="933.935547"/>
      <use xlink:href="#DejaVuSerif-73" x="993.554688"/>
      <use xlink:href="#DejaVuSerif-65" x="1044.873047"/>
      <use xlink:href="#DejaVuSerif-64" x="1104.052734"/>
      <use xlink:href="#DejaVuSerif-20" x="1168.066406"/>
      <use xlink:href="#DejaVuSerif-67" x="1199.853516"/>
      <use xlink:href="#DejaVuSerif-65" x="1263.867188"/>
      <use xlink:href="#DejaVuSerif-6e" x="1323.046875"/>
      <use xlink:href="#DejaVuSerif-65" x="1387.451172"/>
      <use xlink:href="#DejaVuSerif-72" x="1446.630859"/>
      <use xlink:href="#DejaVuSerif-61" x="1494.433594"/>
      <use xlink:href="#DejaVuSerif-74" x="1554.052734"/>
      <use xlink:href="#DejaVuSerif-6f" x="1594.238281"/>
      <use xlink:href="#DejaVuSerif-72" x="1654.443359"/>
     </g>
    </g>
    <g id="line2d_23">
     <path d="M 196.75225 268.79525 
L 205.55225 268.79525 
L 214.35225 268.79525 
" style="fill: none; stroke-dasharray: 4.8,1.8; stroke-dashoffset: 0; stroke: #2ca02c; stroke-width: 1.2"/>
    </g>
    <g id="text_18">
     <!-- Our type-based generator (OTBG) -->
     <g style="fill: #262626" transform="translate(221.39225 271.87525) scale(0.088 -0.088)">
      <defs>
       <path id="DejaVuSerif-4f" d="M 2625 244 
Q 3391 244 3781 770 
Q 4172 1297 4172 2328 
Q 4172 3363 3781 3889 
Q 3391 4416 2625 4416 
Q 1856 4416 1465 3889 
Q 1075 3363 1075 2328 
Q 1075 1297 1465 770 
Q 1856 244 2625 244 
z
M 2625 -91 
Q 2150 -91 1751 65 
Q 1353 222 1050 525 
Q 700 875 529 1319 
Q 359 1763 359 2328 
Q 359 2894 529 3339 
Q 700 3784 1050 4134 
Q 1356 4441 1750 4595 
Q 2144 4750 2625 4750 
Q 3641 4750 4266 4084 
Q 4891 3419 4891 2328 
Q 4891 1769 4719 1320 
Q 4547 872 4197 525 
Q 3891 219 3497 64 
Q 3103 -91 2625 -91 
z
" transform="scale(0.015625)"/>
       <path id="DejaVuSerif-42" d="M 1581 331 
L 2516 331 
Q 3078 331 3337 575 
Q 3597 819 3597 1350 
Q 3597 1878 3339 2120 
Q 3081 2363 2516 2363 
L 1581 2363 
L 1581 331 
z
M 1581 2694 
L 2375 2694 
Q 2888 2694 3123 2891 
Q 3359 3088 3359 3513 
Q 3359 3941 3123 4136 
Q 2888 4331 2375 4331 
L 1581 4331 
L 1581 2694 
z
M 353 0 
L 353 331 
L 947 331 
L 947 4331 
L 353 4331 
L 353 4666 
L 2656 4666 
Q 3363 4666 3720 4377 
Q 4078 4088 4078 3513 
Q 4078 3097 3829 2850 
Q 3581 2603 3103 2547 
Q 3697 2472 4005 2167 
Q 4313 1863 4313 1350 
Q 4313 656 3875 328 
Q 3438 0 2509 0 
L 353 0 
z
" transform="scale(0.015625)"/>
       <path id="DejaVuSerif-47" d="M 4097 3272 
Q 3988 3856 3641 4136 
Q 3294 4416 2675 4416 
Q 1869 4416 1472 3897 
Q 1075 3378 1075 2328 
Q 1075 1300 1484 772 
Q 1894 244 2688 244 
Q 3041 244 3362 331 
Q 3684 419 3975 594 
L 3975 1797 
L 3097 1797 
L 3097 2131 
L 4609 2131 
L 4609 391 
Q 4194 150 3714 29 
Q 3234 -91 2688 -91 
Q 1631 -91 995 570 
Q 359 1231 359 2328 
Q 359 3434 996 4092 
Q 1634 4750 2713 4750 
Q 3113 4750 3539 4658 
Q 3966 4566 4447 4378 
L 4447 3272 
L 4097 3272 
z
" transform="scale(0.015625)"/>
      </defs>
      <use xlink:href="#DejaVuSerif-4f"/>
      <use xlink:href="#DejaVuSerif-75" x="81.982422"/>
      <use xlink:href="#DejaVuSerif-72" x="146.386719"/>
      <use xlink:href="#DejaVuSerif-20" x="194.189453"/>
      <use xlink:href="#DejaVuSerif-74" x="225.976562"/>
      <use xlink:href="#DejaVuSerif-79" x="266.162109"/>
      <use xlink:href="#DejaVuSerif-70" x="322.65625"/>
      <use xlink:href="#DejaVuSerif-65" x="386.669922"/>
      <use xlink:href="#DejaVuSerif-2d" x="445.849609"/>
      <use xlink:href="#DejaVuSerif-62" x="479.638672"/>
      <use xlink:href="#DejaVuSerif-61" x="543.652344"/>
      <use xlink:href="#DejaVuSerif-73" x="603.271484"/>
      <use xlink:href="#DejaVuSerif-65" x="654.589844"/>
      <use xlink:href="#DejaVuSerif-64" x="713.769531"/>
      <use xlink:href="#DejaVuSerif-20" x="777.783203"/>
      <use xlink:href="#DejaVuSerif-67" x="809.570312"/>
      <use xlink:href="#DejaVuSerif-65" x="873.583984"/>
      <use xlink:href="#DejaVuSerif-6e" x="932.763672"/>
      <use xlink:href="#DejaVuSerif-65" x="997.167969"/>
      <use xlink:href="#DejaVuSerif-72" x="1056.347656"/>
      <use xlink:href="#DejaVuSerif-61" x="1104.150391"/>
      <use xlink:href="#DejaVuSerif-74" x="1163.769531"/>
      <use xlink:href="#DejaVuSerif-6f" x="1203.955078"/>
      <use xlink:href="#DejaVuSerif-72" x="1264.160156"/>
      <use xlink:href="#DejaVuSerif-20" x="1311.962891"/>
      <use xlink:href="#DejaVuSerif-28" x="1343.75"/>
      <use xlink:href="#DejaVuSerif-4f" x="1382.763672"/>
      <use xlink:href="#DejaVuSerif-54" x="1464.746094"/>
      <use xlink:href="#DejaVuSerif-42" x="1531.445312"/>
      <use xlink:href="#DejaVuSerif-47" x="1606.806641"/>
      <use xlink:href="#DejaVuSerif-29" x="1686.689453"/>
     </g>
    </g>
    <g id="line2d_24">
     <path d="M 196.75225 281.837125 
L 205.55225 281.837125 
L 214.35225 281.837125 
" style="fill: none; stroke-dasharray: 1.2,1.2; stroke-dashoffset: 0; stroke: #ff7f0e; stroke-width: 1.2"/>
    </g>
    <g id="text_19">
     <!-- SLDThinEqWellLR30Bound10Generator -->
     <g style="fill: #262626" transform="translate(221.39225 284.917125) scale(0.088 -0.088)">
      <defs>
       <path id="DejaVuSerif-4c" d="M 353 0 
L 353 331 
L 947 331 
L 947 4331 
L 353 4331 
L 353 4666 
L 2175 4666 
L 2175 4331 
L 1581 4331 
L 1581 384 
L 3713 384 
L 3713 1166 
L 4097 1166 
L 4097 0 
L 353 0 
z
" transform="scale(0.015625)"/>
       <path id="DejaVuSerif-44" d="M 1581 331 
L 2163 331 
Q 3072 331 3558 850 
Q 4044 1369 4044 2338 
Q 4044 3306 3559 3818 
Q 3075 4331 2163 4331 
L 1581 4331 
L 1581 331 
z
M 353 0 
L 353 331 
L 947 331 
L 947 4331 
L 353 4331 
L 353 4666 
L 2209 4666 
Q 3416 4666 4089 4050 
Q 4763 3434 4763 2338 
Q 4763 1238 4088 619 
Q 3413 0 2209 0 
L 353 0 
z
" transform="scale(0.015625)"/>
       <path id="DejaVuSerif-45" d="M 353 0 
L 353 331 
L 947 331 
L 947 4331 
L 353 4331 
L 353 4666 
L 4109 4666 
L 4109 3628 
L 3725 3628 
L 3725 4281 
L 1581 4281 
L 1581 2719 
L 3109 2719 
L 3109 3303 
L 3494 3303 
L 3494 1753 
L 3109 1753 
L 3109 2338 
L 1581 2338 
L 1581 384 
L 3775 384 
L 3775 1038 
L 4159 1038 
L 4159 0 
L 353 0 
z
" transform="scale(0.015625)"/>
       <path id="DejaVuSerif-71" d="M 3359 2988 
L 3359 -997 
L 3909 -997 
L 3909 -1331 
L 2241 -1331 
L 2241 -997 
L 2784 -997 
L 2784 519 
Q 2616 206 2355 57 
Q 2094 -91 1709 -91 
Q 1097 -91 708 395 
Q 319 881 319 1663 
Q 319 2444 706 2928 
Q 1094 3413 1709 3413 
Q 2094 3413 2355 3264 
Q 2616 3116 2784 2803 
L 2784 3322 
L 3909 3322 
L 3909 2988 
L 3359 2988 
z
M 2784 1825 
Q 2784 2422 2554 2737 
Q 2325 3053 1888 3053 
Q 1444 3053 1217 2703 
Q 991 2353 991 1663 
Q 991 975 1217 622 
Q 1444 269 1888 269 
Q 2325 269 2554 583 
Q 2784 897 2784 1497 
L 2784 1825 
z
" transform="scale(0.015625)"/>
       <path id="DejaVuSerif-57" d="M 4878 0 
L 4366 0 
L 3297 3794 
L 2228 0 
L 1716 0 
L 494 4331 
L 31 4331 
L 31 4666 
L 1734 4666 
L 1734 4331 
L 1153 4331 
L 2125 884 
L 3188 4666 
L 3694 4666 
L 4775 844 
L 5753 4331 
L 5216 4331 
L 5216 4666 
L 6559 4666 
L 6559 4331 
L 6100 4331 
L 4878 0 
z
" transform="scale(0.015625)"/>
       <path id="DejaVuSerif-6c" d="M 1313 331 
L 1856 331 
L 1856 0 
L 184 0 
L 184 331 
L 738 331 
L 738 4531 
L 184 4531 
L 184 4863 
L 1313 4863 
L 1313 331 
z
" transform="scale(0.015625)"/>
       <path id="DejaVuSerif-52" d="M 3066 2316 
Q 3284 2256 3442 2114 
Q 3600 1972 3725 1716 
L 4403 331 
L 4972 331 
L 4972 0 
L 3872 0 
L 3144 1484 
Q 2934 1916 2759 2042 
Q 2584 2169 2278 2169 
L 1581 2169 
L 1581 331 
L 2241 331 
L 2241 0 
L 353 0 
L 353 331 
L 947 331 
L 947 4331 
L 353 4331 
L 353 4666 
L 2719 4666 
Q 3400 4666 3770 4341 
Q 4141 4016 4141 3419 
Q 4141 2938 3870 2661 
Q 3600 2384 3066 2316 
z
M 1581 2503 
L 2503 2503 
Q 2975 2503 3200 2726 
Q 3425 2950 3425 3419 
Q 3425 3888 3200 4109 
Q 2975 4331 2503 4331 
L 1581 4331 
L 1581 2503 
z
" transform="scale(0.015625)"/>
       <path id="DejaVuSerif-33" d="M 622 4469 
Q 988 4606 1323 4678 
Q 1659 4750 1953 4750 
Q 2638 4750 3022 4454 
Q 3406 4159 3406 3634 
Q 3406 3213 3140 2930 
Q 2875 2647 2388 2547 
Q 2963 2466 3280 2130 
Q 3597 1794 3597 1259 
Q 3597 606 3158 257 
Q 2719 -91 1894 -91 
Q 1528 -91 1179 -12 
Q 831 66 488 225 
L 488 1131 
L 838 1131 
Q 869 681 1141 450 
Q 1413 219 1906 219 
Q 2384 219 2661 495 
Q 2938 772 2938 1253 
Q 2938 1803 2653 2086 
Q 2369 2369 1819 2369 
L 1522 2369 
L 1522 2688 
L 1678 2688 
Q 2225 2688 2498 2914 
Q 2772 3141 2772 3597 
Q 2772 4006 2547 4223 
Q 2322 4441 1900 4441 
Q 1478 4441 1245 4241 
Q 1013 4041 972 3647 
L 622 3647 
L 622 4469 
z
" transform="scale(0.015625)"/>
      </defs>
      <use xlink:href="#DejaVuSerif-53"/>
      <use xlink:href="#DejaVuSerif-4c" x="68.505859"/>
      <use xlink:href="#DejaVuSerif-44" x="134.912109"/>
      <use xlink:href="#DejaVuSerif-54" x="215.087891"/>
      <use xlink:href="#DejaVuSerif-68" x="281.787109"/>
      <use xlink:href="#DejaVuSerif-69" x="346.191406"/>
      <use xlink:href="#DejaVuSerif-6e" x="378.173828"/>
      <use xlink:href="#DejaVuSerif-45" x="442.578125"/>
      <use xlink:href="#DejaVuSerif-71" x="515.576172"/>
      <use xlink:href="#DejaVuSerif-57" x="579.589844"/>
      <use xlink:href="#DejaVuSerif-65" x="674.248047"/>
      <use xlink:href="#DejaVuSerif-6c" x="733.427734"/>
      <use xlink:href="#DejaVuSerif-6c" x="765.410156"/>
      <use xlink:href="#DejaVuSerif-4c" x="797.392578"/>
      <use xlink:href="#DejaVuSerif-52" x="863.798828"/>
      <use xlink:href="#DejaVuSerif-33" x="939.091797"/>
      <use xlink:href="#DejaVuSerif-30" x="1002.714844"/>
      <use xlink:href="#DejaVuSerif-42" x="1066.337891"/>
      <use xlink:href="#DejaVuSerif-6f" x="1139.824219"/>
      <use xlink:href="#DejaVuSerif-75" x="1200.029297"/>
      <use xlink:href="#DejaVuSerif-6e" x="1264.433594"/>
      <use xlink:href="#DejaVuSerif-64" x="1328.837891"/>
      <use xlink:href="#DejaVuSerif-31" x="1392.851562"/>
      <use xlink:href="#DejaVuSerif-30" x="1456.474609"/>
      <use xlink:href="#DejaVuSerif-47" x="1520.097656"/>
      <use xlink:href="#DejaVuSerif-65" x="1599.980469"/>
      <use xlink:href="#DejaVuSerif-6e" x="1659.160156"/>
      <use xlink:href="#DejaVuSerif-65" x="1723.564453"/>
      <use xlink:href="#DejaVuSerif-72" x="1782.744141"/>
      <use xlink:href="#DejaVuSerif-61" x="1830.546875"/>
      <use xlink:href="#DejaVuSerif-74" x="1890.166016"/>
      <use xlink:href="#DejaVuSerif-6f" x="1930.351562"/>
      <use xlink:href="#DejaVuSerif-72" x="1990.556641"/>
     </g>
    </g>
    <g id="line2d_25">
     <path d="M 196.75225 294.753875 
L 205.55225 294.753875 
L 214.35225 294.753875 
" style="fill: none; stroke-dasharray: 3.6,1.5,1.8,1.5; stroke-dashoffset: 0; stroke: #d62728; stroke-width: 1.2"/>
    </g>
    <g id="text_20">
     <!-- SLSDThinEqWellLR30Bound10Generator -->
     <g style="fill: #262626" transform="translate(221.39225 297.833875) scale(0.088 -0.088)">
      <use xlink:href="#DejaVuSerif-53"/>
      <use xlink:href="#DejaVuSerif-4c" x="68.505859"/>
      <use xlink:href="#DejaVuSerif-53" x="134.912109"/>
      <use xlink:href="#DejaVuSerif-44" x="203.417969"/>
      <use xlink:href="#DejaVuSerif-54" x="283.59375"/>
      <use xlink:href="#DejaVuSerif-68" x="350.292969"/>
      <use xlink:href="#DejaVuSerif-69" x="414.697266"/>
      <use xlink:href="#DejaVuSerif-6e" x="446.679688"/>
      <use xlink:href="#DejaVuSerif-45" x="511.083984"/>
      <use xlink:href="#DejaVuSerif-71" x="584.082031"/>
      <use xlink:href="#DejaVuSerif-57" x="648.095703"/>
      <use xlink:href="#DejaVuSerif-65" x="742.753906"/>
      <use xlink:href="#DejaVuSerif-6c" x="801.933594"/>
      <use xlink:href="#DejaVuSerif-6c" x="833.916016"/>
      <use xlink:href="#DejaVuSerif-4c" x="865.898438"/>
      <use xlink:href="#DejaVuSerif-52" x="932.304688"/>
      <use xlink:href="#DejaVuSerif-33" x="1007.597656"/>
      <use xlink:href="#DejaVuSerif-30" x="1071.220703"/>
      <use xlink:href="#DejaVuSerif-42" x="1134.84375"/>
      <use xlink:href="#DejaVuSerif-6f" x="1208.330078"/>
      <use xlink:href="#DejaVuSerif-75" x="1268.535156"/>
      <use xlink:href="#DejaVuSerif-6e" x="1332.939453"/>
      <use xlink:href="#DejaVuSerif-64" x="1397.34375"/>
      <use xlink:href="#DejaVuSerif-31" x="1461.357422"/>
      <use xlink:href="#DejaVuSerif-30" x="1524.980469"/>
      <use xlink:href="#DejaVuSerif-47" x="1588.603516"/>
      <use xlink:href="#DejaVuSerif-65" x="1668.486328"/>
      <use xlink:href="#DejaVuSerif-6e" x="1727.666016"/>
      <use xlink:href="#DejaVuSerif-65" x="1792.070312"/>
      <use xlink:href="#DejaVuSerif-72" x="1851.25"/>
      <use xlink:href="#DejaVuSerif-61" x="1899.052734"/>
      <use xlink:href="#DejaVuSerif-74" x="1958.671875"/>
      <use xlink:href="#DejaVuSerif-6f" x="1998.857422"/>
      <use xlink:href="#DejaVuSerif-72" x="2059.0625"/>
     </g>
    </g>
   </g>
  </g>
 </g>
 <defs>
  <clipPath id="pb6181eda93">
   <rect x="57.6" y="41.472" width="357.12" height="266.112"/>
  </clipPath>
 </defs>
</svg>
